<?xml version="1.0" encoding="UTF-8" standalone="no"?>
<svg
   xmlns:dc="http://purl.org/dc/elements/1.1/"
   xmlns:cc="http://creativecommons.org/ns#"
   xmlns:rdf="http://www.w3.org/1999/02/22-rdf-syntax-ns#"
   xmlns:svg="http://www.w3.org/2000/svg"
   xmlns="http://www.w3.org/2000/svg"
   viewBox="0 0 3178.5867 2245.04"
   height="2245.04"
   width="3178.5867"
   xml:space="preserve"
   id="svg2"
   version="1.1"><metadata
     id="metadata8"><rdf:RDF><cc:Work
         rdf:about=""><dc:format>image/svg+xml</dc:format><dc:type
           rdf:resource="http://purl.org/dc/dcmitype/StillImage" /></cc:Work></rdf:RDF></metadata><defs
     id="defs6" /><g
     transform="matrix(1.3333333,0,0,-1.3333333,0,2245.04)"
     id="g10"><path
       id="path12"
       style="fill:none;stroke:#000000;stroke-width:0.70866001;stroke-linecap:round;stroke-linejoin:round;stroke-miterlimit:10;stroke-dasharray:none;stroke-opacity:1"
       d="M 245.39999,328.20001 H 965.40002 M 259.5,342.39999 h 691.70001 m 0,0 v 518.69999 m 0,0 H 259.5 m 0,0 V 342.39999 m 705.90002,-14.19998 v 547.09998 m -720.00003,0 V 328.20001 M 965.40002,875.29999 H 245.39999 M 937,356.60001 H 273.70001 M 937,847 V 356.60001 M 273.70001,847 H 937 M 273.70001,356.60001 V 847 M 914.29999,383.5 916,383.79999 l 1.29999,0.90002 1,1.4 0.29999,1.6 -0.29999,1.69998 -1,1.30002 -1.29999,1 -1.70001,0.29999 -1.59998,-0.29999 -1.40002,-1 -0.89997,-1.30002 -0.30004,-1.69998 0.30004,-1.6 0.89997,-1.4 1.40002,-0.90002 1.59998,-0.29999 m -195.59998,0 1.70001,0.29999 1.29999,0.90002 1,1.4 0.29999,1.6 -0.29999,1.69998 -1,1.30002 -1.29999,1 -1.70001,0.29999 -1.60003,-0.29999 -1.39997,-1 -0.90002,-1.30002 -0.29999,-1.69998 0.29999,-1.6 0.90002,-1.4 1.39997,-0.90002 1.60003,-0.29999 m 0,379.79999 1.70001,0.40002 1.29999,0.89997 1,1.40002 0.29999,1.59998 -0.29999,1.60003 -1,1.39997 -1.29999,0.90002 -1.70001,0.29999 -1.60003,-0.29999 -1.39997,-0.90002 -0.90002,-1.39997 L 714.5,767.59998 714.79999,766 l 0.90002,-1.40002 1.39997,-0.89997 1.60003,-0.40002 m 195.59998,0 1.70001,0.40002 1.29999,0.89997 1,1.40002 0.29999,1.59998 -0.29999,1.60003 -1,1.39997 L 916,771.5 l -1.70001,0.29999 -1.59998,-0.29999 -1.40002,-0.90002 -0.89997,-1.39997 -0.30004,-1.60003 0.30004,-1.59998 0.89997,-1.40002 1.40002,-0.89997 1.59998,-0.40002" /><path
       id="path14"
       style="fill:none;stroke:#000000;stroke-width:0.70866001;stroke-linecap:round;stroke-linejoin:round;stroke-miterlimit:10;stroke-dasharray:none;stroke-opacity:1"
       d="m 1214.8001,694.70001 v -76.40002 m 0,76.40002 L 1724,400.79999 m 0,0 v -76.4 m -509.1999,293.9 509.1999,-293.9 M 2110.8001,624.09998 1601.7,918 M 1724,400.79999 2110.8001,624.09998 M 1601.7,918 1214.8001,694.70001 m 20.0999,0 489.1,-282.30002 m 0,0 366.8001,211.69999 m 0,0 L 1601.7,906.5 m 0,0 -366.8,-211.79999 m 875.9001,-70.60003 v -76.29999 m -386.8001,-223.4 386.8001,223.4 M 2074.7,538.5 v 48.59998 m 0,0 L 1744,396.20001 m 0,0 v -48.6 m 0,0 L 2074.7,538.5 m -473,344.79999 469,-270.70001 m -815.8,70.60003 346.8,200.09998 m 479,-264.89997 -479,276.5 m 0,0 -356.8,-206 M 1754,371.89999 2044.7,539.70001 m 0,0 v 30.09998 M 1754,402 v -30.10001 m 310.7,172.4 v 37 M 1744,359.10001 2064.7,544.29999 m -13,16.79999 0.1999,-1.19996 0.7002,-0.80004 0.8999,-0.19996 1.2,0.39997 1.1001,1 1,1.29999 0.6999,1.5 0.2,1.40002 -0.2,1.20001 -0.6999,0.79999 -1,0.20001 -1.1001,-0.40002 -1.2,-1 -0.8999,-1.29999 -0.7002,-1.5 -0.1999,-1.40002 M 1747,385.20001 l -0.1999,1.19998 -0.7001,0.70002 -0.9,0.19998 -1.2,-0.4 m 0,-6.89999 1.2,0.89999 0.9,1.30002 0.7001,1.5 0.1999,1.5 m 317.7,159.09998 10,-5.79999 m -50.1,47.40002 -422.9,244.19996 m 0,0 L 1301,656.5 m 556.3001,-42.20001 1.2999,-0.5 1.7001,-0.20001 1.5999,0.20001 1.4001,0.5 0.8999,0.79999 0.3,0.90002 -0.3,1 -0.8999,0.79999 -1.4001,0.5 -1.5999,0.20001 -1.7001,-0.20001 -1.2999,-0.5 -1,-0.79999 -0.3001,-1 0.3001,-0.90002 1,-0.79999 M 1995.6,534.5 l 1.3,-0.59998 1.7,-0.20001 1.6,0.20001 1.4,0.59998 0.9,0.70001 0.3001,1 -0.3001,0.89997 -0.9,0.80004 -1.4,0.59998 -1.6,0.1 -1.7,-0.1 -1.3,-0.59998 -1,-0.80004 -0.2999,-0.89997 0.2999,-1 1,-0.70001 m 39,10.90002 10.1,-5.70001 m -10.1,5.70001 L 1754,383.39999 M 2034.6,564 v -18.59998 m -432.9,349.5 V 906.5 m 0,-76.40002 v 53.20001 m -282.6,-202.5 -0.2999,1.79999 -0.6001,1.30004 -1,0.89997 -1.3999,0.29999 -1.5,-0.19996 L 1312.6,684 1311,682.70001 1309.6,681 l -1.2,-2 -0.9,-2.09998 -0.4,-2 V 673 l 0.4,-1.59998 0.9,-1.10003 1.2,-0.59998 h 1.4 l 1.6,0.5 1.7001,1.09998 1.5,1.5 1.3999,1.90002 1,2 0.6001,2.09998 0.2999,2 m 160.3,92.60003 -0.2,1.69996 -0.7,1.40002 -1,0.90002 -1.3,0.29999 -1.6,-0.29999 -1.6,-0.80004 -1.6,-1.29999 -1.5,-1.70001 -1.2,-2 -0.8,-2.09998 -0.4,-2.09998 V 765.5 l 0.4,-1.5 0.8,-1.09998 1.2,-0.60003 1.5,-0.1 1.6,0.59998 1.6,1 1.6,1.60003 1.3,1.79999 1,2.09998 0.7,2.10003 0.2,2" /><path
       id="path16"
       style="fill:none;stroke:#000000;stroke-width:0.70866001;stroke-linecap:round;stroke-linejoin:round;stroke-miterlimit:10;stroke-dasharray:none;stroke-opacity:1"
       d="m 1430.4,1341.1 v -93.5 m 496,14.2001 v 59.5 m 0,0 h -467.7 m 0,0 v -59.5 m 0,0 h 467.7 m -496,-14.2001 h 547 m -547,93.5 h 547 m 0,0 v -93.5 m -490.3,22.7001 h 411 m 0,0 v 42.5 m 0,0 h -411 m 0,0 v -42.5 m 420.9,21.1999 0.3001,-1.6 0.8999,-1.4 1.4,-0.9 1.6,-0.2999 1.7,0.2999 1.4001,0.9 0.8999,1.4 0.3,1.6 -0.3,1.7 -0.8999,1.3 -1.4001,1 -1.7,0.3001 -1.6,-0.3001 -1.4,-1 -0.8999,-1.3 -0.3001,-1.7 m -430.9,0 -0.2999,1.7 -0.9001,1.3 -1.4,1 -1.6,0.3001 -1.5999,-0.3001 -1.4001,-1 -0.9,-1.3 -0.4,-1.7 0.4,-1.6 0.9,-1.4 1.4001,-0.9 1.5999,-0.2999 1.6,0.2999 1.4,0.9 0.9001,1.4 0.2999,1.6 m 72.3,-12.6999 -0.3,2.2999 -0.9,2.1 -1.5,1.8 -1.8999,1.3001 -2.2001,0.7999 -2.2999,0.2001 -2.2001,-0.5 -2.1,-1.1001 -1.6999,-1.6 -1.2001,-1.9 -0.6,-2.3 v -2.3 l 0.6,-2.2 1.2001,-2 1.6999,-1.5999 2.1,-1 2.2001,-0.5 2.2999,0.1999 2.2001,0.7 1.8999,1.4 1.5,1.8 0.9,2.1 0.3,2.3001 m 226.8,0 -0.3,2.2999 -1,2.1 -1.4,1.8 -1.9,1.3001 -2.2,0.7999 -2.3,0.2001 -2.2999,-0.5 -2,-1.1001 -1.7001,-1.6 -1.2,-1.9 -0.5999,-2.3 v -2.3 l 0.5999,-2.2 1.2,-2 1.7001,-1.5999 2,-1 2.2999,-0.5 2.3,0.1999 2.2,0.7 1.9,1.4 1.4,1.8 1,2.1 0.3,2.3001" /><path
       id="path18"
       style="fill:none;stroke:#000000;stroke-width:0.51024002;stroke-linecap:round;stroke-linejoin:round;stroke-miterlimit:10;stroke-dasharray:none;stroke-opacity:1"
       d="m 253.39999,1324.5 -8,-8.1 m 14.10001,1.5 -14.10001,-14.2 m 19.30002,6.6001 L 245.39999,1291 m 28.30002,15.6 -28.30002,-28.4 m 28.30002,15.7 -28.30002,-28.4 m 28.30002,15.6 -28.30002,-28.2999 m 28.30002,15.5999 -28.30002,-28.3 m 28.30002,15.6 L 249,1230.9 m 26.89999,14.2 -14.19998,-14.2 m 26.9,14.2 -14.20002,-14.2 m 26.9,14.2 -14.09998,-14.2 m 26.9,14.2 -14.20002,-14.2 m 26.9,14.2 -14.19998,-14.2 m 26.89999,14.2 -14.20001,-14.2 m 26.90002,14.2 -14.1,-14.2 M 365,1245.1 350.79999,1230.9 m 26.90002,14.2 L 363.5,1230.9 m 26.89999,14.2 -14.1,-14.2 m 26.90002,14.2 L 389,1230.9 m 26.89999,14.2 -14.19998,-14.2 m 26.9,14.2 -14.20002,-14.2 m 26.9,14.2 -14.09998,-14.2 m 26.9,14.2 -14.20002,-14.2 m 26.9,14.2 -14.19998,-14.2 m 26.89999,14.2 -14.20001,-14.2 m 26.90002,14.2 -14.1,-14.2 M 505,1245.1 490.79999,1230.9 m 26.90002,14.2 L 503.5,1230.9 m 26.90002,14.2 -14.10003,-14.2 m 26.90002,14.2 L 529,1230.9 m 26.90002,14.2 -14.20001,-14.2 m 26.89997,14.2 -14.19996,-14.2 m 26.89997,14.2 -14.09998,-14.2 m 26.89997,14.2 -14.19996,-14.2 m 26.89997,14.2 -14.20001,-14.2 m 26.90002,14.2 -14.09998,-14.2 m 26.89997,14.2 -14.20001,-14.2 M 645,1245.1 630.79999,1230.9 m 26.90002,14.2 L 643.5,1230.9 m 26.90002,14.2 -14.10003,-14.2 m 26.90002,14.2 L 669,1230.9 m 26.90002,14.2 -14.20001,-14.2 m 26.89997,14.2 -14.19996,-14.2 m 27,14.2 -14.20001,-14.2 m 26.89997,14.2 -14.19996,-14.2 m 26.89997,14.2 -14.20001,-14.2 m 26.90002,14.2 -14.09998,-14.2 m 26.89997,14.2 -14.20001,-14.2 M 785,1245.1 770.79999,1230.9 m 26.90002,14.2 L 783.5,1230.9 m 26.90002,14.2 -14.10003,-14.2 m 26.90002,14.2 L 809,1230.9 m 26.90002,14.2 -14.20001,-14.2 m 26.89997,14.2 L 834.5,1230.9 m 26.90002,14.2 -14.20001,-14.2 m 26.89997,14.2 -14.19996,-14.2 m 79.39997,79.4001 L 937,1308 m 16.5,16.5 -2.29999,-2.3 m -64.40002,-77.1 -14.20001,-14.2 m 92.80004,92.8 L 937,1295.3001 M 899.5,1245.1 885.40002,1230.9 m 65.79999,65.9001 L 937,1282.6 m 28.40002,28.3 -6.30004,-6.3 m -46.79999,-59.5 -14.20001,-14.2 M 951.20001,1284 937,1269.9 m -12,-24.8 -14.20001,-14.2 m 40.40002,40.4001 L 937,1257.1 m 14.20001,1.5 -27.60003,-27.7 m 27.60003,14.9001 -14.90002,-14.9001 m 26.90002,14.2 L 949,1230.9 m 16.40002,3.7 -3.70001,-3.7 m -712.70001,0 -3.60001,3.7 m 16.30002,-3.7 -9.5,9.6 m 9.5,3.2 -15.89999,15.9 m 28.59997,-28.7 -3.19998,3.2 m -15.89999,28.7001 -9.90003,10 m 35.4,-35.5 -15.9,15.8999 m 35,-22.3 -14.19998,14.2 M 249,1281.9 l -3.60001,3.6 m 28.30002,-28.4 -15.20001,15.2001 m 54.10001,-41.4001 -9.5,9.6 m -35,35 -15.9,15.9 m 60.4,-47.7 -1.4,1.4 m 14.09998,-14.2 -3.09998,3.2 m -60.5,60.5 -15.89999,15.9 m 27.89999,-27.9 -2.5,2.4 m 60.5,-47.6999 -7.80002,7.7999 m -68.59997,68.6 -9.90003,10 m 28.30002,-28.3999 -8.80002,8.7999 m 85.9,-73.2 -14.19998,14.2 m -62.9,62.9 -2.30002,2.3001 M 259.5,1322.2 l -1,1 m 105,-92.3 -9.5,9.6 m 9.5,3.2 -1.39999,1.4 m 14.19998,-14.2 -3.19998,3.2 m 9.5,3.2001 -7.80002,7.7999 m 26.90002,-14.2 -14.20001,14.2 m 26.89999,-14.2 -9.5,9.6 m 9.5,3.2 -1.39999,1.4 m 14.20001,-14.2 -3.20001,3.2 m 9.5,3.2001 -7.79999,7.7999 m 26.9,-14.2 -14.20002,14.2 m 26.9,-14.2 -9.5,9.6 m 9.5,3.2 -1.4,1.4 m 14.20002,-14.2 -3.20002,3.2 m 9.5,3.2001 -7.79998,7.7999 m 26.89999,-14.2 -14.10001,14.2 m 26.9,-14.2 -9.59998,9.6 m 9.59998,3.2 -1.5,1.4 M 529,1230.9 l -3.20001,3.2 m 9.5,3.2001 L 527.5,1245.1 m 26.90002,-14.2 -14.10003,14.2 m 26.90002,-14.2 -9.60003,9.6 m 9.60003,3.2 -1.5,1.4 m 14.20001,-14.2 -3.20001,3.2 m 9.59998,3.2001 L 578.5,1245.1 m 26.90002,-14.2 -14.20001,14.2 m 26.89997,-14.2 -9.59998,9.6 m 9.59998,3.2 -1.5,1.4 m 14.20001,-14.2 -3.20001,3.2 m 9.60003,3.2001 -7.79999,7.7999 m 26.89997,-14.2 -14.20001,14.2 M 669,1230.9 l -9.59998,9.6 m 9.59998,3.2 -1.5,1.4 m 14.20001,-14.2 -3.20001,3.2 m 9.59998,3.2001 -7.79999,7.7999 M 707.20001,1230.9 693,1245.1 m 26.90002,-14.2 -9.5,9.6 m 9.5,3.2 -1.40002,1.4 m 14.09998,-14.2 -3.09998,3.2 m 9.5,3.2001 -7.79999,7.7999 m 26.89997,-14.2 -14.19996,14.2 m 26.89997,-14.2 -9.5,9.6 m 9.5,3.2 -1.39997,1.4 m 14.09998,-14.2 -3.09998,3.2 m 9.5,3.2001 -7.80004,7.7999 M 809,1230.9 l -14.20001,14.2 m 26.90002,-14.2 -9.5,9.6 m 9.5,3.2 -1.40002,1.4 m 14.20001,-14.2 -3.20001,3.2 m 9.5,3.2001 L 833,1245.1 m 26.90002,-14.2 -14.20001,14.2 m 26.89997,-14.2 -9.5,9.6 m 9.5,3.2 -1.39997,1.4 m 14.20001,-14.2 -3.20001,3.2 m 9.5,3.2001 -7.79999,7.7999 m 26.89997,-14.2 -14.09998,14.2 m 26.89997,-14.2 -9.59998,9.6 m 9.59998,3.2 -1.5,1.4 m 14.20001,-14.2 -3.20001,3.2 m 9.5,3.2001 -7.79999,7.7999 m 26.90002,-14.2 -15.90002,16 m 19.60003,-6.8 -0.5,0.4 M 951.20001,1254.2 939.5,1266 m 9.5,3.1 -12,12 m 5.59998,7.1 -5.59998,5.7 m 14.20001,-1.5 -5.40002,5.4001 m 5.90002,6.7999 -5.70001,5.7001 m 18.40002,-5.7001 -5.80004,5.9 m 6.80004,5.9 -8.10003,8.1" /><path
       id="path20"
       style="fill:none;stroke:#000000;stroke-width:0.70866001;stroke-linecap:round;stroke-linejoin:round;stroke-miterlimit:10;stroke-dasharray:none;stroke-opacity:1"
       d="M 937,1310.3001 V 1245.1 m 0,65.2001 h 14.20001 m 0,14.1999 v -14.1999 m 0,14.1999 h 14.20001 m 0,-19.9 v 19.9 m -14.20001,-19.9 h 14.20001 m -14.20001,-59.5 v 59.5 m 14.20001,-59.5 h -14.20001 m 14.20001,-14.2 v 14.2 m -720.00003,-14.2 h 720.00003 m -720.00003,93.6 v -93.6 m 0,93.6 H 259.5 m 0,-14.1999 V 1324.5 m 0,-14.1999 h 14.20001 m 0,-65.2001 v 65.2001 m 0,-65.2001 H 937 m 28.40002,0 v 59.5 m -691.70001,5.7001 H 937 M 951.20001,1324.5 H 259.5" /><text
       id="text24"
       style="font-variant:normal;font-weight:normal;font-stretch:normal;font-size:13.22834969px;font-family:'Century Gothic';-inkscape-font-specification:CenturyGothic;writing-mode:lr-tb;fill:#808080;fill-opacity:1;fill-rule:nonzero;stroke:none"
       transform="matrix(0,1.0003008,1,0,129.14551,604.43721)"><tspan
         id="tspan22"
         y="0"
         x="0 7.3307104 14.661421 21.99213 25.657486 32.988197 40.318905">193,00 </tspan></text>
<text
       id="text30"
       style="font-variant:normal;font-weight:normal;font-stretch:normal;font-size:13.22834969px;font-family:'Century Gothic';-inkscape-font-specification:CenturyGothic;writing-mode:lr-tb;fill:#808080;fill-opacity:1;fill-rule:nonzero;stroke:none"
       transform="matrix(1.0003008,0,0,-1,572.63173,957.59277)"><tspan
         id="tspan26"
         y="0"
         x="0 7.3307104 14.661421 21.99213 25.657486 32.988197 40.318905">244,00 </tspan><tspan
         id="tspan28"
         y="37.806095"
         x="0 7.3307104 14.661421 21.99213 25.657486 32.988197 40.318905">234,00 </tspan></text>
<text
       id="text36"
       style="font-variant:normal;font-weight:normal;font-stretch:normal;font-size:13.22834969px;font-family:'Century Gothic';-inkscape-font-specification:CenturyGothic;writing-mode:lr-tb;fill:#808080;fill-opacity:1;fill-rule:nonzero;stroke:none"
       transform="matrix(0,1.0003008,1,0,163.16125,615.57826)"><tspan
         id="tspan32"
         y="0"
         x="0 7.3307104 14.661421 21.99213 25.657486 32.988197 40.318905">183,00 </tspan><tspan
         id="tspan34"
         y="34.015778"
         x="0 7.3307104 14.661421 21.99213 25.657486 32.988197 40.318905">173,00 </tspan></text>
<text
       id="text40"
       style="font-variant:normal;font-weight:normal;font-stretch:normal;font-size:24px;font-family:'Century Gothic';-inkscape-font-specification:CenturyGothic;writing-mode:lr-tb;fill:#000000;fill-opacity:1;fill-rule:nonzero;stroke:none"
       transform="matrix(1,0,0,-1,1061.9073,800.12671)"><tspan
         id="tspan38"
         y="0"
         x="0 -929.172 -922.52399">A A</tspan></text>
<text
       id="text46"
       style="font-variant:normal;font-weight:normal;font-stretch:normal;font-size:13.22834969px;font-family:'Century Gothic';-inkscape-font-specification:CenturyGothic;writing-mode:lr-tb;fill:#808080;fill-opacity:1;fill-rule:nonzero;stroke:none"
       transform="matrix(1.0003008,0,0,-1,1657.2739,1429.1038)"><tspan
         id="tspan42"
         y="0"
         x="0 7.3307104 14.661421 21.99213 25.657486 32.988197 40.318905">165,00 </tspan><tspan
         id="tspan44"
         y="0.66882539"
         x="-229.99615 -222.66545 -215.33475 -211.66939 -204.33867 -197.00797">10,00 </tspan></text>
<text
       id="text50"
       style="font-variant:normal;font-weight:normal;font-stretch:normal;font-size:13.22834969px;font-family:'Century Gothic';-inkscape-font-specification:CenturyGothic;writing-mode:lr-tb;fill:#808080;fill-opacity:1;fill-rule:nonzero;stroke:none"
       transform="matrix(0,1.0003008,1,0,1336.567,1322.0126)"><tspan
         id="tspan48"
         y="0"
         x="0 7.3307104 10.996065 18.326777 25.657486 -46.200806 -38.870094 -31.539385 -27.874031 -20.54332 -13.212609">7,00 21,00 </tspan></text>
<text
       id="text54"
       style="font-variant:normal;font-weight:normal;font-stretch:normal;font-size:13.22834969px;font-family:'Century Gothic';-inkscape-font-specification:CenturyGothic;writing-mode:lr-tb;fill:#808080;fill-opacity:1;fill-rule:nonzero;stroke:none"
       transform="matrix(1.0003008,0,0,-1,1456.769,1380.2492)"><tspan
         id="tspan52"
         y="0"
         x="0 7.3307104 14.661421 18.326777 25.657486 32.988197 48.511536 55.842243 63.172955 70.503662 74.169022 81.499733 88.830444">10,00 145,00 </tspan></text>
<text
       id="text60"
       style="font-variant:normal;font-weight:normal;font-stretch:normal;font-size:13.22834969px;font-family:'Century Gothic';-inkscape-font-specification:CenturyGothic;writing-mode:lr-tb;fill:#808080;fill-opacity:1;fill-rule:nonzero;stroke:none"
       transform="matrix(0,1.0003008,1,0,1382.1826,1289.9532)"><tspan
         id="tspan56"
         y="0"
         x="0 7.3307104 10.996065 18.326777 25.657486">3,00 </tspan><tspan
         id="tspan58"
         y="17.007954"
         x="-14.141371 -6.8106604 0.52004993 4.1854053 11.516115 18.846827">15,00 </tspan></text>
<path
       id="path62"
       style="fill:none;stroke:#808080;stroke-width:0.51024002;stroke-linecap:butt;stroke-linejoin:miter;stroke-miterlimit:10;stroke-dasharray:none;stroke-opacity:1"
       d="m 1465,1210.1 v 0.5 l -0.1,0.5 -0.2,0.5 -0.2,0.5 -0.1999,0.4 -0.3001,0.4 -0.3,0.4001 -0.3999,0.2999 -0.4001,0.3 -0.5,0.2 -0.4,0.2001 -0.5,0.1 -0.5,0.1 h -0.5 -0.5 l -0.5,-0.1 -0.5,-0.2 -0.5,-0.2 -0.4,-0.1999 -0.4,-0.3001 -0.3999,-0.4 -0.3001,-0.4 -0.3,-0.3999 -0.2,-0.5 -0.1,-0.4001 -0.2,-0.5 v -0.5 -0.5 -0.5 l 0.2,-0.5 0.1,-0.5 0.2,-0.4 0.3,-0.5 0.3001,-0.4 0.3999,-0.2999 0.4,-0.3001 0.4,-0.3 0.5,-0.2 0.5,-0.1 0.5,-0.1 0.5,-0.1001 h 0.5 l 0.5,0.1001 0.5,0.1 0.4,0.2 0.5,0.2001 0.4001,0.2999 0.3999,0.4 0.3,0.3001 0.3001,0.3999 0.1999,0.5 0.2,0.4 0.2,0.5 0.1,0.5 v 0.5 m -6.9,-6.2999 5,12.5999" /><text
       id="text66"
       style="font-variant:normal;font-weight:normal;font-stretch:normal;font-size:13.22834969px;font-family:'Century Gothic';-inkscape-font-specification:CenturyGothic;writing-mode:lr-tb;fill:#808080;fill-opacity:1;fill-rule:nonzero;stroke:none"
       transform="matrix(1.0003006,0,0,-1,1467.9155,1205.3182)"><tspan
         id="tspan64"
         y="0"
         x="0 7.330709 10.996063 18.326773 25.65748">3,00 </tspan></text>
<path
       id="path68"
       style="fill:none;stroke:#808080;stroke-width:0.51024002;stroke-linecap:butt;stroke-linejoin:miter;stroke-miterlimit:10;stroke-dasharray:none;stroke-opacity:1"
       d="m 1902.1,1216.7 v 0.5 l -0.1,0.5 -0.1,0.5 -0.2,0.4 -0.3,0.5 -0.3,0.4 -0.2999,0.3001 -0.4001,0.3999 -0.4,0.3 -0.5,0.2 -0.4,0.2 -0.5,0.1 -0.5,0.1 h -0.5 -0.5 l -0.5,-0.1 -0.5,-0.1999 -0.4,-0.2001 -0.5,-0.2999 -0.3999,-0.3001 -0.3001,-0.3 -0.4,-0.3999 -0.2,-0.4001 -0.2,-0.5 -0.2,-0.5 -0.1,-0.5 -0.1,-0.5 v -0.5 l 0.1,-0.5 0.1,-0.5 0.2,-0.4 0.2,-0.5 0.2,-0.4 0.4,-0.4 0.3001,-0.3 0.3999,-0.4 0.5,-0.1999 0.4,-0.2001 0.5,-0.2 0.5,-0.1 h 0.5 0.5 l 0.5,0.1 0.5,0.1 0.4,0.2 0.5,0.2 0.4,0.3 0.4001,0.3 0.2999,0.4 0.3,0.4001 0.3,0.3999 0.2,0.5 0.1,0.5 0.1,0.5 v 0.5 m -6.9,-6.3 5,12.6" /><text
       id="text72"
       style="font-variant:normal;font-weight:normal;font-stretch:normal;font-size:13.22834969px;font-family:'Century Gothic';-inkscape-font-specification:CenturyGothic;writing-mode:lr-tb;fill:#808080;fill-opacity:1;fill-rule:nonzero;stroke:none"
       transform="matrix(1.0003006,0,0,-1,1905.0408,1211.8856)"><tspan
         id="tspan70"
         y="0"
         x="0 7.330709 10.996063 18.326773 25.65748">3,00 </tspan></text>
<text
       id="text78"
       style="font-variant:normal;font-weight:normal;font-stretch:normal;font-size:13.22834969px;font-family:'Century Gothic';-inkscape-font-specification:CenturyGothic;writing-mode:lr-tb;fill:#808080;fill-opacity:1;fill-rule:nonzero;stroke:none"
       transform="matrix(1.0003008,0,0,-1,1430.943,1228.2762)"><tspan
         id="tspan74"
         y="0"
         x="0 7.3307104 10.996065 18.326777 25.657486">5,00 </tspan><tspan
         id="tspan76"
         y="-4.2416706"
         x="491.21783 498.54855 502.2139 509.54462 516.87531">5,00 </tspan></text>
<text
       id="text82"
       style="font-variant:normal;font-weight:normal;font-stretch:normal;font-size:13.22834969px;font-family:'Century Gothic';-inkscape-font-specification:CenturyGothic;writing-mode:lr-tb;fill:#808080;fill-opacity:1;fill-rule:nonzero;stroke:none"
       transform="matrix(0,1.0003008,1,0,1991.4998,1258.9608)"><tspan
         id="tspan80"
         y="0"
         x="0 7.3307104 14.661421 18.326777 25.657486 32.988197">10,50 </tspan></text>
<path
       id="path84"
       style="fill:none;stroke:#808080;stroke-width:0.51024002;stroke-linecap:butt;stroke-linejoin:miter;stroke-miterlimit:10;stroke-dasharray:none;stroke-opacity:1"
       d="m 1760.9,1206.1 v 0.5 l -0.1,0.5 -0.2001,0.5 -0.2,0.4 -0.2,0.5 -0.3,0.4 -0.4,0.3 -0.3,0.4 -0.5,0.3 -0.3999,0.2 -0.5,0.2001 -0.5,0.1 -0.5,0.1 h -0.5 l -0.5,-0.1 -0.5,-0.1 -0.4001,-0.1001 -0.5,-0.2 -0.4,-0.3 -0.4,-0.3 -0.4,-0.3 -0.3,-0.4 -0.3,-0.3999 -0.2,-0.5 -0.2,-0.5 -0.1,-0.5 v -0.5 -0.5 -0.5 l 0.1,-0.5 0.2,-0.4001 0.2,-0.5 0.3,-0.4 0.3,-0.4 0.4,-0.2999 0.4,-0.4001 0.4,-0.2 0.5,-0.2 0.4001,-0.1999 0.5,-0.1001 h 0.5 0.5 l 0.5,0.1001 0.5,0.1 0.5,0.2 0.3999,0.2001 0.5,0.2999 0.3,0.3 0.4,0.4001 0.3,0.3999 0.2,0.4 0.2,0.5 0.2001,0.5 0.1,0.5 v 0.5 m -7,-6.2999 5.1,12.5999" /><text
       id="text88"
       style="font-variant:normal;font-weight:normal;font-stretch:normal;font-size:13.22834969px;font-family:'Century Gothic';-inkscape-font-specification:CenturyGothic;writing-mode:lr-tb;fill:#808080;fill-opacity:1;fill-rule:nonzero;stroke:none"
       transform="matrix(1.0003006,0,0,-1,1763.7957,1201.2816)"><tspan
         id="tspan86"
         y="0"
         x="0 7.330709 10.996063 18.326773 25.65748">6,00 </tspan></text>
<path
       id="path90"
       style="fill:none;stroke:#808080;stroke-width:0.51024002;stroke-linecap:butt;stroke-linejoin:miter;stroke-miterlimit:10;stroke-dasharray:none;stroke-opacity:1"
       d="m 1528,1216.7 v 0.5 l -0.1,0.5 -0.1,0.5 -0.2001,0.4 -0.2999,0.5 -0.3001,0.4 -0.3,0.3001 -0.3999,0.3999 -0.4001,0.3 -0.5,0.2 -0.4,0.2 -0.5,0.1 -0.5,0.1 h -0.5 -0.5 l -0.5,-0.1 -0.5,-0.1999 -0.5,-0.2001 -0.4,-0.2999 -0.4,-0.3001 -0.3,-0.3 -0.4,-0.3999 -0.1999,-0.4001 -0.3001,-0.5 -0.1,-0.5 -0.1,-0.5 -0.1001,-0.5 v -0.5 l 0.1001,-0.5 0.1,-0.5 0.1,-0.4 0.3001,-0.5 0.1999,-0.4 0.4,-0.4 0.3,-0.3 0.4,-0.4 0.4,-0.1999 0.5,-0.2001 0.5,-0.2 0.5,-0.1 h 0.5 0.5 l 0.5,0.1 0.5,0.1 0.4,0.2 0.5,0.2 0.4001,0.3 0.3999,0.3 0.3,0.4 0.3001,0.4001 0.2999,0.3999 0.2001,0.5 0.1,0.5 0.1,0.5 v 0.5 m -6.9,-6.3 5,12.6" /><text
       id="text94"
       style="font-variant:normal;font-weight:normal;font-stretch:normal;font-size:13.22834969px;font-family:'Century Gothic';-inkscape-font-specification:CenturyGothic;writing-mode:lr-tb;fill:#808080;fill-opacity:1;fill-rule:nonzero;stroke:none"
       transform="matrix(1.0003006,0,0,-1,1530.932,1211.8856)"><tspan
         id="tspan92"
         y="0"
         x="0 7.330709 10.996063 18.326773 25.65748">6,00 </tspan></text>
<text
       id="text100"
       style="font-variant:normal;font-weight:normal;font-stretch:normal;font-size:13.22834969px;font-family:'Century Gothic';-inkscape-font-specification:CenturyGothic;writing-mode:lr-tb;fill:#808080;fill-opacity:1;fill-rule:nonzero;stroke:none"
       transform="matrix(0,1.0003008,1,0,1652.2918,1192.3677)"><tspan
         id="tspan96"
         y="0"
         x="0 7.3307104 14.661421 18.326777 25.657486 32.988197">11,00 </tspan><tspan
         id="tspan98"
         y="-635.48651"
         x="7.4475613 14.778272 18.443626 25.774338 33.105045">5,00 </tspan></text>
<text
       id="text110"
       style="font-variant:normal;font-weight:normal;font-stretch:normal;font-size:13.22834969px;font-family:'Century Gothic';-inkscape-font-specification:CenturyGothic;writing-mode:lr-tb;fill:#808080;fill-opacity:1;fill-rule:nonzero;stroke:none"
       transform="matrix(1.0003008,0,0,-1,945.02583,1355.7297)"><tspan
         id="tspan102"
         y="0"
         x="0 7.3307104 10.996065 18.326777 25.657486">5,00 </tspan><tspan
         id="tspan104"
         y="-27.929544"
         x="-13.540407 -6.2096963 -2.5443413 4.7863688 12.11708">5,00 </tspan><tspan
         id="tspan106"
         y="-3.8876798"
         x="-706.35034 -699.01965 -695.35431 -688.02362 -680.69287">5,00 </tspan><tspan
         id="tspan108"
         y="-28.174931"
         x="-691.10034 -683.76959 -680.10425 -672.77356 -665.44287">5,00 </tspan></text>
<text
       id="text114"
       style="font-variant:normal;font-weight:normal;font-stretch:normal;font-size:13.22834969px;font-family:'Century Gothic';-inkscape-font-specification:CenturyGothic;writing-mode:lr-tb;fill:#808080;fill-opacity:1;fill-rule:nonzero;stroke:none"
       transform="matrix(0,1.0003008,1,0,154.54028,1264.4661)"><tspan
         id="tspan112"
         y="0"
         x="0 7.3307104 14.661421 18.326777 25.657486 32.988197">33,00 </tspan></text>
<text
       id="text118"
       style="font-variant:normal;font-weight:normal;font-stretch:normal;font-size:13.22834969px;font-family:'Century Gothic';-inkscape-font-specification:CenturyGothic;writing-mode:lr-tb;fill:#808080;fill-opacity:1;fill-rule:nonzero;stroke:none"
       transform="matrix(1.0003008,0,0,-1,585.2441,1423.7919)"><tspan
         id="tspan116"
         y="0"
         x="0 7.3307104 14.661421 21.99213 25.657486 32.988197 40.318905">254,00 </tspan></text>
<text
       id="text122"
       style="font-variant:normal;font-weight:normal;font-stretch:normal;font-size:24px;font-family:'Century Gothic';-inkscape-font-specification:CenturyGothic;writing-mode:lr-tb;fill:#000000;fill-opacity:1;fill-rule:nonzero;stroke:none"
       transform="matrix(0.9998575,0,0,-1,537.14441,1194.5801)"><tspan
         id="tspan120"
         y="0"
         x="0 11.950296 24.812464 44.321682 54.544228 59.967453 80.82048 98.57795">SECTION </tspan></text>
<text
       id="text126"
       style="font-variant:normal;font-weight:normal;font-stretch:normal;font-size:13.22834969px;font-family:'Century Gothic';-inkscape-font-specification:CenturyGothic;writing-mode:lr-tb;fill:#000000;fill-opacity:1;fill-rule:nonzero;stroke:none"
       transform="matrix(0.9998416,0,0,-1,646.03305,1194.6088)"><tspan
         id="tspan124"
         y="0"
         x="0 9.7874289 14.178545 17.842218">A- A</tspan></text>
<text
       id="text130"
       style="font-variant:normal;font-weight:normal;font-stretch:normal;font-size:15px;font-family:'Century Gothic';-inkscape-font-specification:CenturyGothic;writing-mode:lr-tb;fill:#000000;fill-opacity:1;fill-rule:nonzero;stroke:none"
       transform="matrix(1.0003748,0,0,-1,44.05421,75.08116)"><tspan
         id="tspan128"
         y="0"
         x="0 2313.0708">AA</tspan></text>
<text
       id="text134"
       style="font-variant:normal;font-weight:normal;font-stretch:normal;font-size:15px;font-family:'Century Gothic';-inkscape-font-specification:CenturyGothic;writing-mode:lr-tb;fill:#000000;fill-opacity:1;fill-rule:nonzero;stroke:none"
       transform="matrix(0.9993225,0,0,-1,45.30416,198.38821)"><tspan
         id="tspan132"
         y="0"
         x="0 2313.0708">BB</tspan></text>
<text
       id="text138"
       style="font-variant:normal;font-weight:normal;font-stretch:normal;font-size:15px;font-family:'Century Gothic';-inkscape-font-specification:CenturyGothic;writing-mode:lr-tb;fill:#000000;fill-opacity:1;fill-rule:nonzero;stroke:none"
       transform="matrix(0.9993843,0,0,-1,43.51256,340.12051)"><tspan
         id="tspan136"
         y="0"
         x="0 2313.071">CC</tspan></text>
<text
       id="text142"
       style="font-variant:normal;font-weight:normal;font-stretch:normal;font-size:15px;font-family:'Century Gothic';-inkscape-font-specification:CenturyGothic;writing-mode:lr-tb;fill:#000000;fill-opacity:1;fill-rule:nonzero;stroke:none"
       transform="matrix(1.0005972,0,0,-1,44.02301,482.03386)"><tspan
         id="tspan140"
         y="0"
         x="0 2313.0708">DD</tspan></text>
<text
       id="text146"
       style="font-variant:normal;font-weight:normal;font-stretch:normal;font-size:15px;font-family:'Century Gothic';-inkscape-font-specification:CenturyGothic;writing-mode:lr-tb;fill:#000000;fill-opacity:1;fill-rule:nonzero;stroke:none"
       transform="matrix(1.0002081,0,0,-1,45.58541,623.58511)"><tspan
         id="tspan144"
         y="0"
         x="0 2313.0708">EE</tspan></text>
<text
       id="text150"
       style="font-variant:normal;font-weight:normal;font-stretch:normal;font-size:15px;font-family:'Century Gothic';-inkscape-font-specification:CenturyGothic;writing-mode:lr-tb;fill:#000000;fill-opacity:1;fill-rule:nonzero;stroke:none"
       transform="matrix(0.9994281,0,0,-1,45.97091,765.31741)"><tspan
         id="tspan148"
         y="0"
         x="0 2313.0708">FF</tspan></text>
<text
       id="text154"
       style="font-variant:normal;font-weight:normal;font-stretch:normal;font-size:15px;font-family:'Century Gothic';-inkscape-font-specification:CenturyGothic;writing-mode:lr-tb;fill:#000000;fill-opacity:1;fill-rule:nonzero;stroke:none"
       transform="matrix(1.0002548,0,0,-1,43.06466,907.04971)"><tspan
         id="tspan152"
         y="0"
         x="0 2313.0708">GG</tspan></text>
<text
       id="text158"
       style="font-variant:normal;font-weight:normal;font-stretch:normal;font-size:15px;font-family:'Century Gothic';-inkscape-font-specification:CenturyGothic;writing-mode:lr-tb;fill:#000000;fill-opacity:1;fill-rule:nonzero;stroke:none"
       transform="matrix(1.0004886,0,0,-1,44.48126,1048.782)"><tspan
         id="tspan156"
         y="0"
         x="0 2313.071">HH</tspan></text>
<text
       id="text162"
       style="font-variant:normal;font-weight:normal;font-stretch:normal;font-size:15px;font-family:'Century Gothic';-inkscape-font-specification:CenturyGothic;writing-mode:lr-tb;fill:#000000;fill-opacity:1;fill-rule:nonzero;stroke:none"
       transform="matrix(0.9998853,0,0,-1,45.99176,1190.6954)"><tspan
         id="tspan160"
         y="0"
         x="0 2313.0708">JJ</tspan></text>
<text
       id="text166"
       style="font-variant:normal;font-weight:normal;font-stretch:normal;font-size:15px;font-family:'Century Gothic';-inkscape-font-specification:CenturyGothic;writing-mode:lr-tb;fill:#000000;fill-opacity:1;fill-rule:nonzero;stroke:none"
       transform="matrix(0.9987773,0,0,-1,45.17921,1332.2465)"><tspan
         id="tspan164"
         y="0"
         x="0 2313.0708">KK</tspan></text>
<text
       id="text170"
       style="font-variant:normal;font-weight:normal;font-stretch:normal;font-size:15px;font-family:'Century Gothic';-inkscape-font-specification:CenturyGothic;writing-mode:lr-tb;fill:#000000;fill-opacity:1;fill-rule:nonzero;stroke:none"
       transform="matrix(1.0010834,0,0,-1,46.13756,1473.9788)"><tspan
         id="tspan168"
         y="0"
         x="0 2313.071">LL</tspan></text>
<text
       id="text174"
       style="font-variant:normal;font-weight:normal;font-stretch:normal;font-size:15px;font-family:'Century Gothic';-inkscape-font-specification:CenturyGothic;writing-mode:lr-tb;fill:#000000;fill-opacity:1;fill-rule:nonzero;stroke:none"
       transform="matrix(1.0004834,0,0,-1,42.71051,1597.286)"><tspan
         id="tspan172"
         y="0"
         x="0 2313.0708">MM</tspan></text>
<text
       id="text240"
       style="font-variant:normal;font-weight:normal;font-stretch:normal;font-size:15px;font-family:'Century Gothic';-inkscape-font-specification:CenturyGothic;writing-mode:lr-tb;fill:#000000;fill-opacity:1;fill-rule:nonzero;stroke:none"
       transform="matrix(1.0003012,0,0,-1,127.04186,15.55366)"><tspan
         id="tspan176"
         y="0"
         x="0 8.3125029">16</tspan><tspan
         id="tspan178"
         y="-1641.2598"
         x="0 8.3125029">16</tspan><tspan
         id="tspan180"
         y="0"
         x="149.5275 157.84">15</tspan><tspan
         id="tspan182"
         y="-1641.2598"
         x="149.5275 157.84">15</tspan><tspan
         id="tspan184"
         y="0"
         x="291.2598 299.5723">14</tspan><tspan
         id="tspan186"
         y="-1641.2598"
         x="291.2598 299.5723">14</tspan><tspan
         id="tspan188"
         y="0"
         x="432.9921 441.3046">13</tspan><tspan
         id="tspan190"
         y="-1641.2598"
         x="432.9921 441.3046">13</tspan><tspan
         id="tspan192"
         y="0"
         x="574.72443 583.03693">12</tspan><tspan
         id="tspan194"
         y="-1641.2598"
         x="574.72443 583.03693">12</tspan><tspan
         id="tspan196"
         y="0"
         x="716.45673 724.76923">11</tspan><tspan
         id="tspan198"
         y="-1641.2598"
         x="716.45673 724.76923">11</tspan><tspan
         id="tspan200"
         y="0"
         x="858.18903 866.50153">10</tspan><tspan
         id="tspan202"
         y="-1641.2598"
         x="858.18903 866.50153">10</tspan><tspan
         id="tspan204"
         y="0"
         x="1004.0775">9</tspan><tspan
         id="tspan206"
         y="-1641.2598"
         x="1004.0775">9</tspan><tspan
         id="tspan208"
         y="0"
         x="1145.8098">8</tspan><tspan
         id="tspan210"
         y="-1641.2598"
         x="1145.8098">8</tspan><tspan
         id="tspan212"
         y="0"
         x="1287.542">7</tspan><tspan
         id="tspan214"
         y="-1641.2598"
         x="1287.542">7</tspan><tspan
         id="tspan216"
         y="0"
         x="1429.2743">6</tspan><tspan
         id="tspan218"
         y="-1641.2598"
         x="1429.2743">6</tspan><tspan
         id="tspan220"
         y="0"
         x="1571.0066">5</tspan><tspan
         id="tspan222"
         y="-1641.2598"
         x="1571.0066">5</tspan><tspan
         id="tspan224"
         y="0"
         x="1712.7389">4</tspan><tspan
         id="tspan226"
         y="-1641.2598"
         x="1712.7389">4</tspan><tspan
         id="tspan228"
         y="0"
         x="1854.4712">3</tspan><tspan
         id="tspan230"
         y="-1641.2598"
         x="1854.4712">3</tspan><tspan
         id="tspan232"
         y="0"
         x="1996.2035">2</tspan><tspan
         id="tspan234"
         y="-1641.2598"
         x="1996.2035">2</tspan><tspan
         id="tspan236"
         y="0"
         x="2145.7312">1</tspan><tspan
         id="tspan238"
         y="-1641.2598"
         x="2145.7312">1</tspan></text>
<text
       id="text244"
       style="font-variant:normal;font-weight:normal;font-stretch:normal;font-size:5.66930008px;font-family:'Century Gothic';-inkscape-font-specification:CenturyGothic;writing-mode:lr-tb;fill:#000000;fill-opacity:1;fill-rule:nonzero;stroke:none"
       transform="matrix(0.85520381,0,0,-1,1847.178,115.89571)"><tspan
         id="tspan242"
         y="0"
         x="0 3.9411788 7.15663 11.076619 16.162012">DRAWN</tspan></text>
<text
       id="text248"
       style="font-variant:normal;font-weight:normal;font-stretch:normal;font-size:5.66930008px;font-family:'Century Gothic';-inkscape-font-specification:CenturyGothic;writing-mode:lr-tb;fill:#000000;fill-opacity:1;fill-rule:nonzero;stroke:none"
       transform="matrix(0.9726712,0,0,-1,1848.0167,103.9252)"><tspan
         id="tspan246"
         y="0"
         x="0 4.4831786 8.2494898 11.508479 12.600324">CHK'D</tspan></text>
<text
       id="text252"
       style="font-variant:normal;font-weight:normal;font-stretch:normal;font-size:5.66930008px;font-family:'Century Gothic';-inkscape-font-specification:CenturyGothic;writing-mode:lr-tb;fill:#000000;fill-opacity:1;fill-rule:nonzero;stroke:none"
       transform="matrix(0.9763795,0,0,-1,1846.493,92.31453)"><tspan
         id="tspan250"
         y="0"
         x="0 4.0961871 7.373137 10.650087 14.53593 15.631937">APPV'D</tspan></text>
<text
       id="text256"
       style="font-variant:normal;font-weight:normal;font-stretch:normal;font-size:5.66930008px;font-family:'Century Gothic';-inkscape-font-specification:CenturyGothic;writing-mode:lr-tb;fill:#000000;fill-opacity:1;fill-rule:nonzero;stroke:none"
       transform="matrix(0.9809665,0,0,-1,1848.5405,79.983576)"><tspan
         id="tspan254"
         y="0"
         x="0 5.1109204 7.8081961">MFG</tspan></text>
<text
       id="text260"
       style="font-variant:normal;font-weight:normal;font-stretch:normal;font-size:5.66930008px;font-family:'Century Gothic';-inkscape-font-specification:CenturyGothic;writing-mode:lr-tb;fill:#000000;fill-opacity:1;fill-rule:nonzero;stroke:none"
       transform="matrix(0.978631,0,0,-1,1849.632,68.046525)"><tspan
         id="tspan258"
         y="0"
         x="0 4.8324409 6.3692794">Q.A</tspan></text>
<text
       id="text264"
       style="font-variant:normal;font-weight:normal;font-stretch:normal;font-size:5.66930008px;font-family:'Century Gothic';-inkscape-font-specification:CenturyGothic;writing-mode:lr-tb;fill:#000000;fill-opacity:1;fill-rule:nonzero;stroke:none"
       transform="matrix(0.9728113,0,0,-1,1847.0372,176.94323)"><tspan
         id="tspan262"
         y="0"
         x="0 3.6124291 7.6936469 10.241651 13.197776 15.944324 18.690874 20.218573 25.011246 27.360704 31.127558 34.083683 37.431385 42.725937 43.972363 46.718914 49.675037 51.202736 53.949287 57.21426 60.170387 64.654213 65.900635 68.575485 69.821915 72.778038 76.881317">UNLESS OTHERWISE SPECIFIED:</tspan></text>
<text
       id="text268"
       style="font-variant:normal;font-weight:normal;font-stretch:normal;font-size:5.66930008px;font-family:'Century Gothic';-inkscape-font-specification:CenturyGothic;writing-mode:lr-tb;fill:#000000;fill-opacity:1;fill-rule:nonzero;stroke:none"
       transform="matrix(0.9740529,0,0,-1,1847.0372,169.85661)"><tspan
         id="tspan266"
         y="0"
         x="0 4.1085153 5.3565321 10.431432 13.391331 17.477757 20.227812 21.475828 26.274618 30.361046 33.111099 34.640747 38.727177 42.079151 45.039047 46.568695 47.816715 51.903141 53.432789 58.50769 59.755707 62.306961 64.858215 66.106232 71.181137 74.141029 76.493484 79.453384 82.805359">DIMENSIONS ARE IN MILLIMETERS</tspan></text>
<text
       id="text272"
       style="font-variant:normal;font-weight:normal;font-stretch:normal;font-size:5.66930008px;font-family:'Century Gothic';-inkscape-font-specification:CenturyGothic;writing-mode:lr-tb;fill:#000000;fill-opacity:1;fill-rule:nonzero;stroke:none"
       transform="matrix(0.9703421,0,0,-1,1847.0372,162.76998)"><tspan
         id="tspan270"
         y="0"
         x="0 2.739578 6.3428378 9.6820421 12.350105 16.420963 20.893408 23.84203 25.36585 28.033915 29.277176 33.348034 34.591297 37.330875 41.088169">SURFACE FINISH:</tspan></text>
<text
       id="text276"
       style="font-variant:normal;font-weight:normal;font-stretch:normal;font-size:5.66930008px;font-family:'Century Gothic';-inkscape-font-specification:CenturyGothic;writing-mode:lr-tb;fill:#000000;fill-opacity:1;fill-rule:nonzero;stroke:none"
       transform="matrix(0.9763814,0,0,-1,1847.0372,155.68336)"><tspan
         id="tspan274"
         y="0"
         x="0 2.3580799 7.1683416 9.7256966 12.69267 16.052658 20.148853 24.245049 28.745327 31.712301 34.468929">TOLERANCES:</tspan></text>
<text
       id="text280"
       style="font-variant:normal;font-weight:normal;font-stretch:normal;font-size:5.66930008px;font-family:'Century Gothic';-inkscape-font-specification:CenturyGothic;writing-mode:lr-tb;fill:#000000;fill-opacity:1;fill-rule:nonzero;stroke:none"
       transform="matrix(0.9739537,0,0,-1,1851.6257,148.59679)"><tspan
         id="tspan278"
         y="0"
         x="0 2.5509956 3.7988853 7.8848958 10.844493 14.930503 18.282135">LINEAR:</tspan></text>
<text
       id="text284"
       style="font-variant:normal;font-weight:normal;font-stretch:normal;font-size:5.66930008px;font-family:'Century Gothic';-inkscape-font-specification:CenturyGothic;writing-mode:lr-tb;fill:#000000;fill-opacity:1;fill-rule:nonzero;stroke:none"
       transform="matrix(0.9793089,0,0,-1,1851.6509,141.51011)"><tspan
         id="tspan282"
         y="0"
         x="0 4.1084771 8.2169542 13.058294 16.694851 19.259874 23.368351 26.738413">ANGULAR:</tspan></text>
<text
       id="text288"
       style="font-variant:normal;font-weight:normal;font-stretch:normal;font-size:5.66930008px;font-family:'Century Gothic';-inkscape-font-specification:CenturyGothic;writing-mode:lr-tb;fill:#000000;fill-opacity:1;fill-rule:nonzero;stroke:none"
       transform="matrix(0.959263,0,0,-1,1942.7849,176.93841)"><tspan
         id="tspan286"
         y="0"
         x="0 2.6375997 3.8666666 7.8910456 9.1201124 11.828411 15.542804">FINISH:</tspan></text>
<text
       id="text292"
       style="font-variant:normal;font-weight:normal;font-stretch:normal;font-size:5.66930008px;font-family:'Century Gothic';-inkscape-font-specification:CenturyGothic;writing-mode:lr-tb;fill:#000000;fill-opacity:1;fill-rule:nonzero;stroke:none"
       transform="matrix(0.976071,0,0,-1,2075.8373,177.17601)"><tspan
         id="tspan290"
         y="0"
         x="0 4.1170278 7.0830584 10.259367 13.883901 17.242821 20.60174 22.134558 26.22945 30.324343 34.441372">DEBURR AND </tspan></text>
<text
       id="text296"
       style="font-variant:normal;font-weight:normal;font-stretch:normal;font-size:5.66930008px;font-family:'Century Gothic';-inkscape-font-specification:CenturyGothic;writing-mode:lr-tb;fill:#000000;fill-opacity:1;fill-rule:nonzero;stroke:none"
       transform="matrix(0.9784406,0,0,-1,2075.8373,170.08939)"><tspan
         id="tspan294"
         y="0"
         x="0 3.18402 6.5510936 9.5243244 13.629159 16.90748 18.444019 21.206461 24.995111 29.099947 32.467018 35.750889">BREAK SHARP </tspan></text>
<text
       id="text300"
       style="font-variant:normal;font-weight:normal;font-stretch:normal;font-size:5.66930008px;font-family:'Century Gothic';-inkscape-font-specification:CenturyGothic;writing-mode:lr-tb;fill:#000000;fill-opacity:1;fill-rule:nonzero;stroke:none"
       transform="matrix(0.9777469,0,0,-1,2075.8373,163.00276)"><tspan
         id="tspan298"
         y="0"
         x="0 2.9711232 7.0952196 11.928839 14.899961">EDGES</tspan></text>
<text
       id="text304"
       style="font-variant:normal;font-weight:normal;font-stretch:normal;font-size:5.66930008px;font-family:'Century Gothic';-inkscape-font-specification:CenturyGothic;writing-mode:lr-tb;fill:#000000;fill-opacity:1;fill-rule:nonzero;stroke:none"
       transform="matrix(0.9804433,0,0,-1,1885.9528,127.5651)"><tspan
         id="tspan302"
         y="0"
         x="0 4.113236 8.2264719 13.334667">NAME</tspan></text>
<text
       id="text308"
       style="font-variant:normal;font-weight:normal;font-stretch:normal;font-size:5.66930008px;font-family:'Century Gothic';-inkscape-font-specification:CenturyGothic;writing-mode:lr-tb;fill:#000000;fill-opacity:1;fill-rule:nonzero;stroke:none"
       transform="matrix(0.975407,0,0,-1,1930.4889,127.73598)"><tspan
         id="tspan306"
         y="0"
         x="0 2.7538776 4.0036292 8.8256807 12.917788 17.009895 19.365622 22.98769 26.344324">SIGNATURE</tspan></text>
<text
       id="text312"
       style="font-variant:normal;font-weight:normal;font-stretch:normal;font-size:5.66930008px;font-family:'Century Gothic';-inkscape-font-specification:CenturyGothic;writing-mode:lr-tb;fill:#000000;fill-opacity:1;fill-rule:nonzero;stroke:none"
       transform="matrix(0.9824174,0,0,-1,1979.1913,127.77685)"><tspan
         id="tspan310"
         y="0"
         x="0 4.1437964 8.2653141 10.637972">DATE</tspan></text>
<text
       id="text316"
       style="font-variant:normal;font-weight:normal;font-stretch:normal;font-size:5.66930008px;font-family:'Century Gothic';-inkscape-font-specification:CenturyGothic;writing-mode:lr-tb;fill:#000000;fill-opacity:1;fill-rule:nonzero;stroke:none"
       transform="matrix(0.9762579,0,0,-1,2003.0907,69.411125)"><tspan
         id="tspan314"
         y="0"
         x="0 5.0863881 9.182066 11.539847 14.506446 17.866009 19.11685 23.212526 25.769558">MATERIAL:</tspan></text>
<text
       id="text320"
       style="font-variant:normal;font-weight:normal;font-stretch:normal;font-size:5.66930008px;font-family:'Century Gothic';-inkscape-font-specification:CenturyGothic;writing-mode:lr-tb;fill:#000000;fill-opacity:1;fill-rule:nonzero;stroke:none"
       transform="matrix(0.9805937,0,0,-1,2164.5771,173.0088)"><tspan
         id="tspan318"
         y="0"
         x="0 4.1361041 8.9671183 10.507039 14.620906 19.45192 21.820173 23.360094 26.128614 30.64831 34.762177 37.330563 40.310337 41.850258 45.986362 49.360847 53.474712 58.811623 60.06802 64.181885">DO NOT SCALE DRAWING</tspan></text>
<text
       id="text324"
       style="font-variant:normal;font-weight:normal;font-stretch:normal;font-size:5.66930008px;font-family:'Century Gothic';-inkscape-font-specification:CenturyGothic;writing-mode:lr-tb;fill:#000000;fill-opacity:1;fill-rule:nonzero;stroke:none"
       transform="matrix(0.9713287,0,0,-1,2279.9839,172.44731)"><tspan
         id="tspan322"
         y="0"
         x="0 3.3425996 6.2942195 10.159961 11.404487 14.146851 15.391376 20.176746">REVISION</tspan></text>
<text
       id="text328"
       style="font-variant:normal;font-weight:normal;font-stretch:normal;font-size:5.66930008px;font-family:'Century Gothic';-inkscape-font-specification:CenturyGothic;writing-mode:lr-tb;fill:#000000;fill-opacity:1;fill-rule:nonzero;stroke:none"
       transform="matrix(0.9674583,0,0,-1,2129.0746,127.77685)"><tspan
         id="tspan326"
         y="0"
         x="0 2.3365297 3.576097 5.9126267 8.4466095 11.386468">TITLE:</tspan></text>
<text
       id="text332"
       style="font-variant:normal;font-weight:normal;font-stretch:normal;font-size:5.66930008px;font-family:'Century Gothic';-inkscape-font-specification:CenturyGothic;writing-mode:lr-tb;fill:#000000;fill-opacity:1;fill-rule:nonzero;stroke:none"
       transform="matrix(0.9792133,0,0,-1,2128.686,69.411125)"><tspan
         id="tspan330"
         y="0"
         x="0 4.1302819 9.4596777 14.300546 15.838298 19.946375 24.770588">DWG NO.</tspan></text>
<text
       id="text336"
       style="font-variant:normal;font-weight:normal;font-stretch:normal;font-size:5.66930008px;font-family:'Century Gothic';-inkscape-font-specification:CenturyGothic;writing-mode:lr-tb;fill:#000000;fill-opacity:1;fill-rule:nonzero;stroke:none"
       transform="matrix(0.9593564,0,0,-1,2129.0287,32.317009)"><tspan
         id="tspan334"
         y="0"
         x="0 2.7085619 7.1303706 11.155141 13.667904 16.583143 18.089712 21.102852 22.609421">SCALE:1:1</tspan></text>
<text
       id="text340"
       style="font-variant:normal;font-weight:normal;font-stretch:normal;font-size:5.66930008px;font-family:'Century Gothic';-inkscape-font-specification:CenturyGothic;writing-mode:lr-tb;fill:#000000;fill-opacity:1;fill-rule:nonzero;stroke:none"
       transform="matrix(0.9685817,0,0,-1,2254.8994,32.317009)"><tspan
         id="tspan338"
         y="0"
         x="0 2.7346077 6.4850841 9.4283562 12.371629 14.710872 16.231928 19.274042 20.795099 25.566935 28.230158 29.751215">SHEET 1 OF 1</tspan></text>
<text
       id="text344"
       style="font-variant:normal;font-weight:normal;font-stretch:normal;font-size:11px;font-family:'Century Gothic';-inkscape-font-specification:CenturyGothic;writing-mode:lr-tb;fill:#000000;fill-opacity:1;fill-rule:nonzero;stroke:none"
       transform="matrix(0.9599599,0,0,-1,2329.7136,60.93704)"><tspan
         id="tspan342"
         y="0"
         x="0 7.8140736">A1</tspan></text>
<text
       id="text348"
       style="font-variant:normal;font-weight:normal;font-stretch:normal;font-size:5.66400003px;font-family:'Century Gothic';-inkscape-font-specification:CenturyGothic;writing-mode:lr-tb;fill:#000000;fill-opacity:1;fill-rule:nonzero;stroke:none"
       transform="matrix(0.9756296,0,0,-1,2003.0111,32.46056)"><tspan
         id="tspan346"
         y="0"
         x="0 5.3049273 8.2668447 9.5157137 14.334356 18.108591 20.462652 21.993345">WEIGHT: </tspan></text>
<text
       id="text352"
       style="font-variant:normal;font-weight:normal;font-stretch:normal;font-size:24px;font-family:'Century Gothic';-inkscape-font-specification:CenturyGothic;writing-mode:lr-tb;fill:#000000;fill-opacity:1;fill-rule:nonzero;stroke:none"
       transform="matrix(0.9828481,0,0,-1,2206.8013,48.92502)"><tspan
         id="tspan350"
         y="0"
         x="0 13.539716 28.990088">Box</tspan></text>
<path
       id="path354"
       style="fill:none;stroke:#000000;stroke-width:0.99212998;stroke-linecap:butt;stroke-linejoin:miter;stroke-miterlimit:10;stroke-dasharray:none;stroke-opacity:1"
       d="m 1046.1,823 4.2001,-17 h -8.5 l 4.2999,17 m -881.49999,0 4.29998,-17 h -8.5 l 4.20002,17" /><path
       id="path356"
       style="fill:none;stroke:#000000;stroke-width:0.51024002;stroke-linecap:butt;stroke-linejoin:miter;stroke-miterlimit:10;stroke-dasharray:43.2, 3.60001, 3.60001, 3.60001;stroke-dashoffset:0;stroke-opacity:1"
       d="m 1540.9605,1293.0032 v 1.4172" /><path
       id="path358"
       style="fill:none;stroke:#000000;stroke-width:0.51024002;stroke-linecap:butt;stroke-linejoin:miter;stroke-miterlimit:10;stroke-dasharray:43.2, 3.60001, 3.60001, 3.60001;stroke-dashoffset:0;stroke-opacity:1"
       d="m 1526.7872,1278.83 h -1.4173" /><path
       id="path360"
       style="fill:none;stroke:#000000;stroke-width:0.51024002;stroke-linecap:butt;stroke-linejoin:miter;stroke-miterlimit:10;stroke-dasharray:43.2, 3.60001, 3.60001, 3.60001;stroke-dashoffset:0;stroke-opacity:1"
       d="m 1540.9605,1264.6567 v -1.4173" /><path
       id="path362"
       style="fill:none;stroke:#000000;stroke-width:0.51024002;stroke-linecap:butt;stroke-linejoin:miter;stroke-miterlimit:10;stroke-dasharray:43.2, 3.60001, 3.60001, 3.60001;stroke-dashoffset:0;stroke-opacity:1"
       d="m 1555.1337,1278.83 h 1.4172" /><path
       id="path364"
       style="fill:none;stroke:#000000;stroke-width:0.51024002;stroke-linecap:butt;stroke-linejoin:miter;stroke-miterlimit:10;stroke-dasharray:43.2, 3.60001, 3.60001, 3.60001;stroke-dashoffset:0;stroke-opacity:1"
       d="m 1767.7321,1293.0032 v 1.4172" /><path
       id="path366"
       style="fill:none;stroke:#000000;stroke-width:0.51024002;stroke-linecap:butt;stroke-linejoin:miter;stroke-miterlimit:10;stroke-dasharray:43.2, 3.60001, 3.60001, 3.60001;stroke-dashoffset:0;stroke-opacity:1"
       d="m 1753.5588,1278.83 h -1.4173" /><path
       id="path368"
       style="fill:none;stroke:#000000;stroke-width:0.51024002;stroke-linecap:butt;stroke-linejoin:miter;stroke-miterlimit:10;stroke-dasharray:43.2, 3.60001, 3.60001, 3.60001;stroke-dashoffset:0;stroke-opacity:1"
       d="m 1767.7321,1264.6567 v -1.4173" /><path
       id="path370"
       style="fill:none;stroke:#000000;stroke-width:0.51024002;stroke-linecap:butt;stroke-linejoin:miter;stroke-miterlimit:10;stroke-dasharray:43.2, 3.60001, 3.60001, 3.60001;stroke-dashoffset:0;stroke-opacity:1"
       d="m 1781.9053,1278.83 h 1.4173" /><path
       id="path372"
       style="fill:none;stroke:#000000;stroke-width:0.51024002;stroke-linecap:butt;stroke-linejoin:miter;stroke-miterlimit:10;stroke-dasharray:43.2, 3.60001, 3.60001, 3.60001;stroke-dashoffset:0;stroke-opacity:1"
       d="m 1912.299,1298.6725 v 4.2519" /><path
       id="path374"
       style="fill:none;stroke:#000000;stroke-width:0.51024002;stroke-linecap:butt;stroke-linejoin:miter;stroke-miterlimit:10;stroke-dasharray:43.2, 3.60001, 3.60001, 3.60001;stroke-dashoffset:0;stroke-opacity:1"
       d="m 1905.2124,1291.5858 h -4.2521" /><path
       id="path376"
       style="fill:none;stroke:#000000;stroke-width:0.51024002;stroke-linecap:butt;stroke-linejoin:miter;stroke-miterlimit:10;stroke-dasharray:43.2, 3.60001, 3.60001, 3.60001;stroke-dashoffset:0;stroke-opacity:1"
       d="m 1912.299,1284.4993 v -4.252" /><path
       id="path378"
       style="fill:none;stroke:#000000;stroke-width:0.51024002;stroke-linecap:butt;stroke-linejoin:miter;stroke-miterlimit:10;stroke-dasharray:43.2, 3.60001, 3.60001, 3.60001;stroke-dashoffset:0;stroke-opacity:1"
       d="m 1919.3856,1291.5858 h 4.252" /><path
       id="path380"
       style="fill:none;stroke:#000000;stroke-width:0.51024002;stroke-linecap:butt;stroke-linejoin:miter;stroke-miterlimit:10;stroke-dasharray:43.2, 3.60001, 3.60001, 3.60001;stroke-dashoffset:0;stroke-opacity:1"
       d="m 1472.929,1298.6725 v 4.2519" /><path
       id="path382"
       style="fill:none;stroke:#000000;stroke-width:0.51024002;stroke-linecap:butt;stroke-linejoin:miter;stroke-miterlimit:10;stroke-dasharray:43.2, 3.60001, 3.60001, 3.60001;stroke-dashoffset:0;stroke-opacity:1"
       d="m 1465.8424,1291.5858 h -4.2521" /><path
       id="path384"
       style="fill:none;stroke:#000000;stroke-width:0.51024002;stroke-linecap:butt;stroke-linejoin:miter;stroke-miterlimit:10;stroke-dasharray:43.2, 3.60001, 3.60001, 3.60001;stroke-dashoffset:0;stroke-opacity:1"
       d="m 1472.929,1284.4993 v -4.252" /><path
       id="path386"
       style="fill:none;stroke:#000000;stroke-width:0.51024002;stroke-linecap:butt;stroke-linejoin:miter;stroke-miterlimit:10;stroke-dasharray:43.2, 3.60001, 3.60001, 3.60001;stroke-dashoffset:0;stroke-opacity:1"
       d="m 1480.0155,1291.5858 h 4.2518" /><path
       id="path388"
       style="fill:none;stroke:#000000;stroke-width:0.51024002;stroke-linecap:butt;stroke-linejoin:miter;stroke-miterlimit:10;stroke-dasharray:43.2, 3.60001, 3.60001, 3.60001;stroke-dashoffset:0;stroke-opacity:1"
       d="m 914.37994,394.87802 v 4.25195" /><path
       id="path390"
       style="fill:none;stroke:#000000;stroke-width:0.51024002;stroke-linecap:butt;stroke-linejoin:miter;stroke-miterlimit:10;stroke-dasharray:43.2, 3.60001, 3.60001, 3.60001;stroke-dashoffset:0;stroke-opacity:1"
       d="m 907.29333,387.79141 h -4.25201" /><path
       id="path392"
       style="fill:none;stroke:#000000;stroke-width:0.51024002;stroke-linecap:butt;stroke-linejoin:miter;stroke-miterlimit:10;stroke-dasharray:43.2, 3.60001, 3.60001, 3.60001;stroke-dashoffset:0;stroke-opacity:1"
       d="m 914.37994,380.7048 v -4.25198" /><path
       id="path394"
       style="fill:none;stroke:#000000;stroke-width:0.51024002;stroke-linecap:butt;stroke-linejoin:miter;stroke-miterlimit:10;stroke-dasharray:43.2, 3.60001, 3.60001, 3.60001;stroke-dashoffset:0;stroke-opacity:1"
       d="m 921.46655,387.79141 h 4.25196" /><path
       id="path396"
       style="fill:none;stroke:#000000;stroke-width:0.51024002;stroke-linecap:butt;stroke-linejoin:miter;stroke-miterlimit:10;stroke-dasharray:43.2, 3.60001, 3.60001, 3.60001;stroke-dashoffset:0;stroke-opacity:1"
       d="m 718.78937,394.87802 v 4.25195" /><path
       id="path398"
       style="fill:none;stroke:#000000;stroke-width:0.51024002;stroke-linecap:butt;stroke-linejoin:miter;stroke-miterlimit:10;stroke-dasharray:43.2, 3.60001, 3.60001, 3.60001;stroke-dashoffset:0;stroke-opacity:1"
       d="m 711.70276,387.79141 h -4.25195" /><path
       id="path400"
       style="fill:none;stroke:#000000;stroke-width:0.51024002;stroke-linecap:butt;stroke-linejoin:miter;stroke-miterlimit:10;stroke-dasharray:43.2, 3.60001, 3.60001, 3.60001;stroke-dashoffset:0;stroke-opacity:1"
       d="m 718.78937,380.7048 v -4.25198" /><path
       id="path402"
       style="fill:none;stroke:#000000;stroke-width:0.51024002;stroke-linecap:butt;stroke-linejoin:miter;stroke-miterlimit:10;stroke-dasharray:43.2, 3.60001, 3.60001, 3.60001;stroke-dashoffset:0;stroke-opacity:1"
       d="m 725.87598,387.79141 h 4.25195" /><path
       id="path404"
       style="fill:none;stroke:#000000;stroke-width:0.51024002;stroke-linecap:butt;stroke-linejoin:miter;stroke-miterlimit:10;stroke-dasharray:43.2, 3.60001, 3.60001, 3.60001;stroke-dashoffset:0;stroke-opacity:1"
       d="m 718.78937,774.72052 v 4.25201" /><path
       id="path406"
       style="fill:none;stroke:#000000;stroke-width:0.51024002;stroke-linecap:butt;stroke-linejoin:miter;stroke-miterlimit:10;stroke-dasharray:43.2, 3.60001, 3.60001, 3.60001;stroke-dashoffset:0;stroke-opacity:1"
       d="m 711.70276,767.63397 h -4.25195" /><path
       id="path408"
       style="fill:none;stroke:#000000;stroke-width:0.51024002;stroke-linecap:butt;stroke-linejoin:miter;stroke-miterlimit:10;stroke-dasharray:43.2, 3.60001, 3.60001, 3.60001;stroke-dashoffset:0;stroke-opacity:1"
       d="m 718.78937,760.54736 v -4.25201" /><path
       id="path410"
       style="fill:none;stroke:#000000;stroke-width:0.51024002;stroke-linecap:butt;stroke-linejoin:miter;stroke-miterlimit:10;stroke-dasharray:43.2, 3.60001, 3.60001, 3.60001;stroke-dashoffset:0;stroke-opacity:1"
       d="m 725.87598,767.63397 h 4.25195" /><path
       id="path412"
       style="fill:none;stroke:#000000;stroke-width:0.51024002;stroke-linecap:butt;stroke-linejoin:miter;stroke-miterlimit:10;stroke-dasharray:43.2, 3.60001, 3.60001, 3.60001;stroke-dashoffset:0;stroke-opacity:1"
       d="m 914.37994,774.72052 v 4.25201" /><path
       id="path414"
       style="fill:none;stroke:#000000;stroke-width:0.51024002;stroke-linecap:butt;stroke-linejoin:miter;stroke-miterlimit:10;stroke-dasharray:43.2, 3.60001, 3.60001, 3.60001;stroke-dashoffset:0;stroke-opacity:1"
       d="m 907.29333,767.63397 h -4.25201" /><path
       id="path416"
       style="fill:none;stroke:#000000;stroke-width:0.51024002;stroke-linecap:butt;stroke-linejoin:miter;stroke-miterlimit:10;stroke-dasharray:43.2, 3.60001, 3.60001, 3.60001;stroke-dashoffset:0;stroke-opacity:1"
       d="m 914.37994,760.54736 v -4.25201" /><path
       id="path418"
       style="fill:none;stroke:#000000;stroke-width:0.51024002;stroke-linecap:butt;stroke-linejoin:miter;stroke-miterlimit:10;stroke-dasharray:43.2, 3.60001, 3.60001, 3.60001;stroke-dashoffset:0;stroke-opacity:1"
       d="m 921.46655,767.63397 h 4.25196" /><path
       id="path420"
       style="fill:none;stroke:#000000;stroke-width:0.99212998;stroke-linecap:butt;stroke-linejoin:miter;stroke-miterlimit:10;stroke-dasharray:18, 3.60001, 3.60001, 3.60001, 3.60001, 3.60001;stroke-dashoffset:12.60039043;stroke-opacity:1"
       d="M 1051.8036,823.03259 H 159.00354" /><path
       id="path422"
       style="fill:none;stroke:#000000;stroke-width:0.51024002;stroke-linecap:round;stroke-linejoin:round;stroke-miterlimit:10;stroke-dasharray:none;stroke-opacity:1"
       d="m 1540.9,1278.8001 v 7.0999 m 0,-7.0999 h -7.0999 m 7.0999,0 V 1271.7 m 0,7.1001 h 7.1 m 219.7,0 v 7.0999 m 0,-7.0999 h -7.1 m 7.1,0 V 1271.7 m 0,7.1001 h 7.1001 M 1912.2,1291.5 v 7.1 m 0,-7.1 h -7 m 7,0 v -7.1 m 0,7.1 h 7.1001 m -446.4001,0 v 7.1 m 0,-7.1 h -7.0999 m 7.0999,0 v -7.1 m 0,7.1 h 7.1" /><path
       id="path424"
       style="fill:none;stroke:#000000;stroke-width:0.51024002;stroke-linecap:round;stroke-linejoin:round;stroke-miterlimit:10;stroke-dasharray:none;stroke-opacity:1"
       d="m 914.29999,387.70001 v 7.09998 m 0,-7.09998 h -7.09998 m 7.09998,0 v -7 m 0,7 h 7.10003 m -202.70001,0 v 7.09998 m 0,-7.09998 h -7 m 7,0 v -7 m 0,7 h 7.09998 m -7.09998,379.89997 v 7.10003 m 0,-7.10003 h -7 m 7,0 V 760.5 m 0,7.09998 h 7.09998 m 188.5,0 v 7.10003 m 0,-7.10003 h -7.09998 m 7.09998,0 V 760.5 m 0,7.09998 h 7.10003" /><path
       id="path426"
       style="fill:none;stroke:#000000;stroke-width:0.99212998;stroke-linecap:round;stroke-linejoin:round;stroke-miterlimit:10;stroke-dasharray:none;stroke-opacity:1"
       d="m 1046.1,789 v 34 M 164.60001,789 v 34" /><path
       id="path428"
       style="fill:none;stroke:#808080;stroke-width:0.51024002;stroke-linecap:round;stroke-linejoin:round;stroke-miterlimit:10;stroke-dasharray:none;stroke-opacity:1"
       d="M 1926.4,1324.1 V 1429 M 1458.7,1324.1 V 1429 m 467.7,-2.8 h -467.7 m 467.7,0 -10.0999,-1.1 m 0,0 v 2.2001 m 0,0 10.0999,-1.1001 m -467.7,0 10.1001,1.1001 m 0,0 V 1425.1 m 0,0 -10.1001,1.1 m 0,-102.1 v 104.2001 M 1430.4,1344 v 84.3001 m 28.3,-2.8001 h 18 m -18,0 h -28.3 m 0,0 h -18 m 46.3,0 10.1001,1.1 m 0,0 v -2.2 m 0,0 -10.1001,1.1 m -28.3,0 -10.0999,-1.1 m 0,0 v 2.2 m 0,0 10.0999,-1.1 m 56.7,-109.9 v 64.6 m -28.4,-56.1 v 56.1 m 28.4,-2.8999 h 18 m -18,0 h -28.4 m 0,0 h -18 m 46.4,0 10,1.0999 m 0,0 v -2.2 m 0,0 -10,1.1001 m -28.4,0 -10.1,-1.1001 m 0,0 v 2.2 m 0,0 10.1,-1.0999 m -1199.2,-50 V 1359.5 m -14.10001,-32.1999 V 1359.5 M 259.5,1356.7 h 18 m -18,0 h -14.10001 m 0,0 h -18 m 32.10001,0 10.10001,1.1001 m 0,0 V 1355.6 m 0,0 -10.10001,1.1 m -14.10001,0 -10.09997,-1.1 m 0,0 v 2.2001 m 0,0 10.09997,-1.1001 m 28.30002,-43.5 v 70.6001 m -14.20001,-56.5 v 56.5 M 273.70001,1381 h 18 m -18,0 H 259.5 m 0,0 h -18 m 32.20001,0 10.09998,1.1 m 0,0 v -2.2 m 0,0 -10.09998,1.1 m -14.20001,0 -10.10001,-1.1 m 0,0 v 2.2 m 0,0 L 259.5,1381 m 705.90002,-53.6999 V 1423.7 M 245.39999,1327.3001 V 1423.7 m 720.00003,-2.8 H 245.39999 m 720.00003,0 -10.10003,-1.0999 m 0,0 v 2.0999 m 0,0 10.10003,-1 m -720.00003,0 10,1 m 0,0 v -2.0999 m 0,0 -10,1.0999" /><path
       id="path430"
       style="fill:none;stroke:#808080;stroke-width:0.51024002;stroke-linecap:round;stroke-linejoin:round;stroke-miterlimit:10;stroke-dasharray:none;stroke-opacity:1"
       d="m 273.70001,849.79999 v 69.90002 M 937,849.79999 v 69.90002 M 273.70001,916.90002 H 937 m -663.29999,0 10.09998,1 m 0,0 v -2.10003 m 0,0 -10.09998,1.10003 m 663.29999,0 -10.09998,-1.10003 m 0,0 v 2.10003 m 0,0 10.09998,-1 M 1468.6,1288.7 v -89.3 m 8.5,89.3 v -89.3 m -8.5,2.8 h -18 m 18,0 h 8.5 m 0,0 h 18 m -26.5,0 -10.1,-1 m 0,0 v 2.1001 m 0,0 10.1,-1.1001 m 8.5,0 10.1,1.1001 m 0,0 V 1201.2 m 0,0 -10.1,1 m 430.9,86.5 V 1206 m 8.5,82.7 V 1206 m -8.5,2.8001 h -18 m 18,0 h 8.5 m 0,0 h 18 m -26.5,0 -10.1,-1.1001 m 0,0 v 2.2 m 0,0 10.1,-1.0999 m 8.5,0 10.1,1.0999 m 0,0 v -2.2 m 0,0 -10.1,1.1001 M 1458.7,1258.9 v -36.4 m 14.2,54.9 v -54.9 m -14.2,2.9 h -31.5 m 31.5,0 h 14.2 m 0,0 h 18 m -32.2,0 -10.1,-1.0999 m 0,0 v 2.0999 m 0,0 10.1,-1 m 14.2,0 10.1,1 m 0,0 v -2.0999 m 0,0 -10.1,1.0999 m 439.3,52 v -50.5999 m 14.2,32.0999 v -32.0999 m -14.2,2.7999 h -18 m 18,0 h 14.2 m 0,0 h 25 m -39.2,0 -10,-1.1 m 0,0 v 2.2 m 0,0 10,-1.1 m 14.2,0 10.1,1.1 m 0,0 v -2.2 m 0,0 -10.1,1.1 m -167.2,46.3 v -80.5 m 17,80.5 v -80.5 m -17,2.8 h -18 m 18,0 h 17 m 0,0 h 18 m -35,0 -10.1,-1.1 m 0,0 v 2.2001 m 0,0 10.1,-1.1001 m 17,0 10.1001,1.1001 m 0,0 V 1197.1 m 0,0 -10.1001,1.1 m -243.8,77.7 V 1206 m 17,69.9 V 1206 m -17,2.8001 h -18 m 18,0 h 17 m 0,0 h 18 m -35,0 -10.0999,-1.1001 m 0,0 v 2.2 m 0,0 10.0999,-1.0999 m 17,0 10.1,1.0999 m 0,0 v -2.2 m 0,0 -10.1,1.1001 M 951.20001,1307.5 v 48.1 m 14.20001,-28.2999 V 1355.6 m -14.20001,-2.7999 h -18 m 18,0 h 14.20001 m 0,0 h 18 m -32.20001,0 -10.10003,-1.1001 m 0,0 v 2.2 m 0,0 10.10003,-1.0999 m 14.20001,0 10,1.0999 m 0,0 v -2.2 m 0,0 -10,1.1001 M 937,1313.2 v 70.4 m 14.20001,-76.1 v 76.1 M 937,1380.7 h -18 m 18,0 h 14.20001 m 0,0 h 18 m -32.20001,0 -10.09998,-1 m 0,0 v 2.1001 m 0,0 L 937,1380.7 m 14.20001,0 10.09998,1.1001 m 0,0 V 1379.7 m 0,0 -10.09998,1" /><path
       id="path432"
       style="fill:none;stroke:#808080;stroke-width:0.51024002;stroke-linecap:round;stroke-linejoin:round;stroke-miterlimit:10;stroke-dasharray:none;stroke-opacity:1"
       d="m 951.20001,864 v 93.5 M 259.5,864 v 93.5 m 691.70001,-2.79999 H 259.5 m 691.70001,0 -10.10003,-1.10003 m 0,0 v 2.20001 m 0,0 10.10003,-1.09998 m -691.70001,0 10.10001,1.09998 m 0,0 v -2.20001 m 0,0 L 259.5,954.70001 M 1898.1,1315.6 v 64.6 m -411,-64.6 v 64.6 m 411,-2.8999 h -411 m 411,0 -10.1,-1.1001 m 0,0 v 2.2 m 0,0 10.1,-1.0999 m -411,0 10,1.0999 m 0,0 v -2.2 m 0,0 -10,1.1001" /><path
       id="path434"
       style="fill:none;stroke:#808080;stroke-width:0.51024002;stroke-linecap:round;stroke-linejoin:round;stroke-miterlimit:10;stroke-dasharray:none;stroke-opacity:1"
       d="m 1455.9,1321.3001 h -119.3 m 90.9,19.7999 h -90.9 m 2.8,-19.7999 v -18 m 0,18 V 1341.1 m 0,0 v 18 m 0,-37.7999 1.1,-10.1001 m 0,0 h -2.1999 m 0,0 1.0999,10.1001 m 0,19.7999 -1.0999,10.1 m 0,0 h 2.1999 m 0,0 -1.1,-10.1 m 144.8,-28.2999 h -102 m 73.7,8.5 h -73.7 m 2.8,-8.5 V 1286.2 m 0,26.6001 v 8.5 m 0,0 v 18 m 0,-26.5 1.1,-10.1001 m 0,0 h -2.2 m 0,0 1.1,10.1001 m 0,8.5 -1.1,10.0999 m 0,0 h 2.2 m 0,0 -1.1,-10.0999" /><path
       id="path436"
       style="fill:none;stroke:#808080;stroke-width:0.51024002;stroke-linecap:round;stroke-linejoin:round;stroke-miterlimit:10;stroke-dasharray:none;stroke-opacity:1"
       d="M 270.89999,356.60001 H 197.20001 M 270.89999,847 H 197.20001 M 200,356.60001 V 847 m 0,-490.39999 -1.10001,10 m 0,0 h 2.20002 m 0,0 -1.10001,-10 M 200,847 l 1.10001,-10.09998 m 0,0 h -2.20002 m 0,0 L 200,847" /><path
       id="path438"
       style="fill:none;stroke:#808080;stroke-width:0.51024002;stroke-linecap:round;stroke-linejoin:round;stroke-miterlimit:10;stroke-dasharray:none;stroke-opacity:1"
       d="M 242.5,875.29999 H 129.10001 M 242.5,328.20001 H 129.10001 M 132,875.29999 V 328.20001 m 0,547.09998 1,-10.09998 m 0,0 h -2.10001 m 0,0 L 132,875.29999 m 0,-547.09998 -1.10001,10.09998 m 0,0 H 133 m 0,0 -1,-10.09998 m 124.70001,532.89997 h -93.6 m 93.6,-518.69999 h -93.6 M 166,861.09998 V 342.39999 M 166,861.09998 167.10001,851 m 0,0 h -2.20002 m 0,0 L 166,861.09998 M 166,342.39999 164.89999,352.5 m 0,0 h 2.20002 m 0,0 L 166,342.39999 m 1289.9,978.90011 h -119.3 m 119.3,-59.5 h -119.3 m 2.8,59.5 v 18 m 0,-18 v -59.5 m 0,0 v -18 m 0,77.5 -1.0999,10.0999 m 0,0 h 2.1999 m 0,0 -1.1,-10.0999 m 0,-59.5 1.1,-10.1001 m 0,0 h -2.1999 m 0,0 1.0999,10.1001 m 587,29.6999 h 70.8 m -67.8999,-29.6999 H 1997.2 m -2.8999,29.6999 v 18 m 0,-18 v -29.6999 m 0,0 v -18 m 0,47.6999 -1.1001,10.1 m 0,0 h 2.2 m 0,0 -1.0999,-10.1 m 0,-29.6999 1.0999,-10.1001 m 0,0 h -2.2 m 0,0 1.1001,10.1001 m -245,17 h -97 m 2.7999,0 V 1247.6 m 0,0 v -58.9 m 0,90.1001 1.1,-10.1001 m 0,0 h -2.2 m 0,0 1.1,10.1001 m 0,-31.2001 -1.1,10.1 m 0,0 h 2.2 m 0,0 -1.1,-10.1 m -715.30001,-2.5 H 1022.5 m -54.29999,-14.2 H 1022.5 m -2.9,14.2 v 18 m 0,-18 v -14.2 m 0,0 v -34.8 m 0,49 -1.1,10.1 m 0,0 h 2.2 m 0,0 -1.1,-10.1 m 0,-14.2 1.1,-10 m 0,0 h -2.2 m 0,0 1.1,10 m -777.1,93.6 h -88 m 88,-93.6 h -88 m 2.89999,93.6 v -93.6 m 0,93.6 1,-10.1 m 0,0 h -2.09997 m 0,0 1.09997,10.1 m 0,-93.6 -1.09997,10.1 m 0,0 h 2.09997 m 0,0 -1,-10.1" /><path
       id="path440"
       style="fill:none;stroke:#808080;stroke-width:0.51024002;stroke-linecap:round;stroke-linejoin:round;stroke-miterlimit:10;stroke-dasharray:none;stroke-opacity:1"
       d="m 1484.2,1312.8001 h -85 m 85,-42.5 h -85 m 2.8,42.5 v 18 m 0,-18 v -42.5 m 0,0 v -18 m 0,60.5 -1.1,10.0999 m 0,0 h 2.2 m 0,0 -1.1,-10.0999 m 0,-42.5 1.1,-10.1001 m 0,0 h -2.2 m 0,0 1.1,10.1001" /><path
       id="path442"
       style="fill:none;stroke:#c0c0c0;stroke-width:0.99212998;stroke-linecap:round;stroke-linejoin:round;stroke-miterlimit:10;stroke-dasharray:none;stroke-opacity:1"
       d="M 42.5,841.79999 H 70.8 M 1206.1,1669.6 v -28.4 M 2369.7,841.79999 h -28.3001 M 1206.1,14.10001 V 42.5 M 56.60001,133.20001 H 42.5 m 2313,0 h 14.2 M 56.60001,274.89999 H 42.5 m 2313,0 h 14.2 M 56.60001,416.60001 H 42.5 m 2313,0 h 14.2 M 56.60001,558.40002 H 42.5 m 2313,0 h 14.2 M 56.60001,700.09998 H 42.5 m 2313,0 h 14.2 M 56.60001,841.79999 H 42.5 m 2313,0 h 14.2 M 56.60001,983.59998 H 42.5 m 2313,0 h 14.2 M 56.60001,1125.3001 H 42.5 m 2313,0 h 14.2 M 56.60001,1267 H 42.5 m 2313,0 h 14.2 M 56.60001,1408.8001 H 42.5 m 2313,0 h 14.2 M 56.60001,1550.5 H 42.5 m 2313,0 h 14.2 M 214,1655.4 v 14.2 M 214,28.3 V 14.10001 M 355.70001,1655.4 v 14.2 m 0,-1641.3 V 14.10001 M 497.39999,1655.4 v 14.2 m 0,-1641.3 V 14.10001 M 639.20001,1655.4 v 14.2 m 0,-1641.3 V 14.10001 M 780.90002,1655.4 v 14.2 m 0,-1641.3 V 14.10001 M 922.59998,1655.4 v 14.2 m 0,-1641.3 V 14.10001 M 1064.4,1655.4 v 14.2 m 0,-1641.3 V 14.10001 M 1206.1,1655.4 v 14.2 m 0,-1641.3 V 14.10001 M 1347.8001,1655.4 v 14.2 m 0,-1641.3 V 14.10001 M 1489.6,1655.4 v 14.2 m 0,-1641.3 V 14.10001 M 1631.3001,1655.4 v 14.2 m 0,-1641.3 V 14.10001 M 1773,1655.4 v 14.2 M 1773,28.3 V 14.10001 M 1914.8001,1655.4 v 14.2 m 0,-1641.3 V 14.10001 M 2056.5,1655.4 v 14.2 m 0,-1641.3 V 14.10001 M 2198.2,1655.4 v 14.2 m 0,-1641.3 V 14.10001" /><path
       id="path444"
       style="fill:none;stroke:#c0c0c0;stroke-width:1.41733003;stroke-linecap:round;stroke-linejoin:round;stroke-miterlimit:10;stroke-dasharray:none;stroke-opacity:1"
       d="M 1845.3001,40.3 H 2355.5 m 0,96.40001 h -510.1999 m 0,48.19998 H 2355.5 M 1921.8001,136.70001 V 28.3 m 203.5998,60.2 h -280.0998 m 280.0998,12.10001 h -280.0998 m 280.0998,12 H 1845.3001 M 2125.3999,124.7 H 1845.3001 M 2000.1,28.3 v 108.40001 m -154.7999,48.19998 V 28.3 M 1867.4,136.70001 V 28.3 m 73.7,108.40001 v 48.19998 m 30.1,-48.19998 V 28.3 m 58.4,60.2 v 48.20001 m -29.5,-84.3 h -154.7999 m 228.5,132.49998 V 76.5 M 2000.1,64.40001 H 1845.3001 M 2000.1,76.5 h -154.7999 m 154.7999,0 h 355.4 M 2125.3999,184.89999 V 28.3 m 125.3001,0 v 12 m 22.1001,126.50002 v 18.09997 M 2318.7,40.3 v 36.2 m 36.8,90.30002 H 2125.3999 M 2355.5,52.40001 h -36.8" /><path
       id="path446"
       style="fill:none;stroke:#c0c0c0;stroke-width:1.98424995;stroke-linecap:round;stroke-linejoin:round;stroke-miterlimit:10;stroke-dasharray:none;stroke-opacity:1"
       d="m 56.60001,28.3 v 1627.1 m 0,0 H 2355.5 m 0,0 V 28.3 m 0,0 H 56.60001 M 42.5,14.10001 V 1669.6 m 0,0 h 2327.2 m 0,0 V 14.10001 m 0,0 H 42.5" /><path
       id="path448"
       style="fill:#000000;fill-opacity:1;fill-rule:nonzero;stroke:none"
       d="m 1046.1,823 4.2001,-17 h -8.5 m -877.20009,17 4.29998,-17 h -8.5" /></g></svg>